<svg width="1440" height="516" viewBox="0 0 1440 516" fill="none" xmlns="http://www.w3.org/2000/svg">
<path d="M1468.88 227.17C1536.09 387.513 1590.74 538.141 1711.92 627.475C1739.9 644.591 1763.41 694.261 1770.42 737.115C1781.76 806.492 1797.46 866.55 1763.93 951.039C1739.44 1012.77 1703.76 1068.46 1654.32 1092.92C1560.89 1139.15 1469.88 1186.89 1379.39 1181.7C1312.62 1177.86 1242.23 1178.34 1173.18 1185.09C1092.89 1192.95 1027.91 1147.57 947.815 1158.31C886.203 1166.58 814.485 1175.4 751.238 1207.96C677.291 1246.04 617.204 1291.8 546.944 1348.91C485.648 1398.74 427.329 1415.99 366.006 1456.93C300.886 1500.4 230.679 1530.06 164.573 1559.27C93.626 1590.62 22.7129 1591.67 -45.3295 1597.08C-119.301 1602.96 -167.144 1574.65 -223.596 1535.26C-289.707 1489.14 -320.067 1404.84 -355.495 1320.32C-388.309 1242.03 -410.759 1144.15 -416.705 1045.73C-429.544 833.251 -346.436 614.489 -209.011 428.611C-168.413 373.698 -120.072 330.568 -74.5631 285.038C-29.0791 239.533 16.2582 189.118 65.2378 154.235C149.23 94.4175 230.702 59.4953 314.743 49.1154C527.367 22.854 652.847 248.329 872.127 189.808C949.251 169.226 1003.15 114.65 1075.11 61.2467C1141.38 12.0658 1231.13 -12.2002 1289.74 8.13253C1385.92 41.4967 1423.27 118.344 1468.88 227.17Z" fill="#FFC637"/>
</svg>
