<svg width="100" height="241" viewBox="0 0 100 241" fill="none" xmlns="http://www.w3.org/2000/svg">
<path d="M53.0908 201.814C61.7562 195.258 70.0491 188.94 76.4355 179.247C83.9474 167.846 100.622 136.501 99.9628 122.838C98.2541 87.4466 76.5851 51.7599 50.9911 36.3155C38.9502 29.0496 26.9723 21.2859 16.2559 11.6227C4.67514 1.17989 -8.95011 -1.23977 -23.8564 1.57512C-31.4479 3.0087 -37.6346 9.21455 -42.9606 15.3573C-48.7458 22.0296 -54.0081 28.3018 -58.5481 36.2291C-63.3254 44.5707 -67.9642 54.2313 -70.2022 63.8727C-72.7977 75.055 -74.0946 86.8879 -75.8707 98.2362C-82.1649 138.452 -87.1826 184.706 -69.7624 220.74C-66.8167 226.833 -60.7132 237.369 -54.434 238.886C-49.8283 239.999 -45.0326 240.565 -40.303 240.629C-25.4788 240.831 -12.7045 237.588 1.37376 231.209C9.09373 227.711 17.1992 225.311 24.6506 220.936C34.416 215.202 43.8924 208.773 53.0908 201.814Z" fill="#FFC637"/>
</svg>
