<svg width="908" height="1104" viewBox="0 0 908 1104" fill="none" xmlns="http://www.w3.org/2000/svg">
<path fill-rule="evenodd" clip-rule="evenodd" d="M437.236 0.831971C570.572 6.7686 710.83 53.2018 792.242 149.875C831.37 196.338 836.493 252.943 835.41 312.192C834.41 366.924 828.115 423.912 838.44 477.243C855.726 566.532 920.242 645.735 905.603 735.418C889.385 834.775 837.679 929.591 753.973 994.715C666.304 1062.92 550.187 1120.23 437.236 1099.81C327.759 1080.02 293.656 950.199 200.123 894.574C97.7834 833.711 75.5256 833.063 28.7467 730C-17.0792 629.037 -1.27976 574.353 28.7467 468.551C42.8241 418.947 16.5691 364.974 13.4336 312.192C9.16091 240.264 6.98409 170.546 56.1724 117.102C144.529 21.1026 300.124 -5.27276 437.236 0.831971Z" fill="#FFC637"/>
</svg>
