<svg width="777" height="888" viewBox="0 0 777 888" fill="none" xmlns="http://www.w3.org/2000/svg">
<path fill-rule="evenodd" clip-rule="evenodd" d="M437.489 -215.168C570.825 -209.231 711.083 -162.798 792.495 -66.1253C831.623 -19.6622 836.746 36.9433 835.664 96.1915C834.664 150.924 828.368 207.912 838.693 261.243C855.979 350.532 920.495 429.734 905.857 519.418C889.638 618.775 837.932 713.591 754.226 778.715C666.557 846.922 550.441 904.232 437.489 883.81C328.012 864.015 293.91 734.199 200.376 678.574C98.0367 617.711 75.7789 617.063 29 514C-16.8259 413.037 -1.02646 358.353 29 252.551C43.0774 202.947 16.8224 148.974 13.6869 96.1915C9.4142 24.264 7.23739 -45.4544 56.4257 -98.8978C144.782 -194.897 300.377 -221.273 437.489 -215.168Z" fill="#FFC637"/>
</svg>
