<svg width="255" height="524" viewBox="0 0 255 524" fill="none" xmlns="http://www.w3.org/2000/svg">
<path d="M149.575 73.8597C148.299 113.535 131.427 151.867 116.711 189.315C106.461 215.401 87.5305 248.133 105.736 272.952C111.581 278.928 114.606 284.799 121.955 290.009C131.328 296.654 137.865 301.049 150.246 303.474C171.024 307.544 193.644 304.217 213.291 312.252C223.89 316.587 234.263 319.887 241.581 327.912C250.267 337.435 255.176 345.802 254.995 357.636C254.804 370.117 243.915 380.763 233.655 389.156C219.646 400.615 202.19 412.758 185.061 420.825C162.671 431.369 136.616 435.301 114.943 446.809C96.5427 456.579 80.3289 470.204 64.5803 482.618C49.8616 494.219 37.316 508.852 20.5587 518.476C8.5163 525.392 -3.40739 524.176 -17.7316 523.364C-50.3525 521.513 -83.6015 511.117 -109.189 494.188C-120.758 486.535 -128.209 476.734 -134.553 465.86C-145.547 447.02 -156.08 428.028 -167.173 409.255C-177.103 392.45 -189.982 376.635 -202.781 361.227C-216.68 344.495 -233.736 327.048 -252.168 313.449C-286.475 288.138 -326.119 264.681 -348.138 230.46C-359.285 213.136 -355.555 187.641 -346.186 170.214C-336.225 151.683 -318.277 140.525 -296.799 131.114C-268.697 118.799 -239.207 113.088 -207.902 109.369C-190.882 107.347 -173.732 106.115 -156.564 105.28C-143.104 104.624 -129.276 104.665 -116.079 102.187C-93.0453 97.8633 -72.3298 87.0124 -56.2047 73.0617C-48.5712 66.4575 -40.2761 60.4406 -32.6696 53.8108C-26.0345 48.0276 -19.7242 41.8286 -12.1221 36.854C2.90045 27.0236 19.9518 19.4159 34.9481 9.52367C50.6277 -0.819377 72.4648 -2.90465 90.6763 4.08753C107.806 10.6642 119.481 18.7524 132.564 29.6723C139.125 35.1484 145.155 42.5438 148.295 49.8209C151.373 56.9544 149.814 66.4189 149.575 73.8597Z" fill="#FFC637"/>
</svg>
