<svg width="185" height="352" viewBox="0 0 185 352" fill="none" xmlns="http://www.w3.org/2000/svg">
<path d="M52.7044 268.856C61.8191 284.971 70.606 300.387 84.3293 311.689C100.471 324.982 145.002 353.775 164.717 350.873C215.786 343.354 268.047 296.893 291.287 245.177C302.221 220.847 313.869 196.58 328.207 174.548C343.701 150.739 347.712 123.894 344.228 95.1717C342.453 80.544 333.748 69.2192 325.1 59.5647C315.707 49.0778 306.87 39.5628 295.62 31.6514C283.783 23.3267 270.039 15.4278 256.23 12.2067C240.215 8.47074 223.212 7.34322 206.927 5.22418C149.214 -2.2851 82.7482 -6.59177 30.1498 31.6284C21.2555 38.0913 5.83869 51.2351 3.41101 63.6543C1.63039 72.7633 0.629564 82.1782 0.355309 91.4049C-0.504293 120.324 3.67782 144.84 12.3301 171.527C17.0747 186.161 20.2209 201.676 26.2402 215.683C34.1286 234.039 43.0291 251.75 52.7044 268.856Z" fill="#FFC637"/>
</svg>
