<svg width="298" height="309" viewBox="0 0 298 309" fill="none" xmlns="http://www.w3.org/2000/svg">
<path d="M92.5599 291.941C72.0249 275.92 53.8385 260.263 31.4991 257.331C26.5983 257.11 19.8878 252.339 15.8252 247.274C9.24816 239.073 2.7905 232.393 0.942831 219.017C-0.4071 209.244 0.142083 199.456 4.77865 192.739C13.5406 180.046 21.8774 167.329 34.0371 161.527C43.0081 157.246 52.1351 152.146 60.6264 146.326C70.499 139.559 82.2923 140.803 91.9273 133.675C99.3391 128.192 108.025 121.912 113.863 113.154C120.688 102.915 125.145 92.6696 130.091 80.2202C134.406 69.3592 140.728 62.9438 145.701 53.2364C150.981 42.9279 157.938 34.0498 164.395 25.5231C171.324 16.372 180.477 11.1607 188.935 5.58744C198.131 -0.471429 206.439 -0.218119 216.682 0.858449C228.678 2.1192 238.826 10.897 249.651 19.3421C259.677 27.1642 269.795 38.2742 277.804 50.634C295.095 77.3199 300.36 111.689 296.138 145.674C294.891 155.714 291.77 164.777 289.194 173.95C286.619 183.117 284.425 192.912 280.614 200.949C274.079 214.732 266.042 225.101 255.867 232.465C230.124 251.095 197.216 230.784 172.978 254.082C164.453 262.276 161.45 273.224 156.009 285.313C150.999 296.446 141.101 306.022 131.978 307.576C117.007 310.125 106.497 302.814 92.5599 291.941Z" fill="#FFC637"/>
</svg>
