<svg width="604" height="402" viewBox="0 0 604 402" fill="none" xmlns="http://www.w3.org/2000/svg">
<path d="M55.1272 291.045C45.3294 244.15 38.3978 200.557 10.5148 169.896C3.89579 163.763 0.141827 149.091 0.456589 137.151C0.966172 117.821 -0.164876 100.769 13.1342 79.7926C22.8508 64.4664 35.2522 51.3751 49.7438 47.4527C77.1289 40.0405 103.944 32.0914 127.912 38.3924C145.595 43.0411 164.47 46.724 183.308 48.6416C205.21 50.8713 220.292 66.6297 242.29 68.0695C259.212 69.177 278.869 70.6811 297.473 65.3203C319.223 59.0524 337.654 49.9632 359.391 38.3594C378.354 28.2362 394.855 26.7404 413.37 19.0181C433.033 10.8177 453.351 6.61888 472.548 2.31799C493.151 -2.29778 512.195 1.26051 530.693 3.4852C550.804 5.90373 562.168 16.131 575.272 29.8136C590.617 45.837 594.436 70.2201 599.601 94.9399C604.385 117.836 605.391 145.458 601.95 172.328C594.521 230.344 561.077 284.859 514.768 327.56C501.087 340.176 485.936 349.193 471.42 359.011C456.912 368.824 442.193 379.969 427.292 386.727C401.74 398.316 378.135 403.325 355.098 401.574C296.815 397.145 274.743 329.525 213.027 333.438C191.32 334.814 174.096 346.618 152.093 357.128C131.83 366.806 106.554 368.493 91.8976 359.834C67.8478 345.625 61.7771 322.872 55.1272 291.045Z" fill="#FFC637"/>
</svg>
