<svg width="784" height="613" viewBox="0 0 784 613" fill="none" xmlns="http://www.w3.org/2000/svg">
<path d="M645.782 183.299C676.133 255.71 701.612 322.935 748.455 371.164C759.135 380.853 769.496 403.537 773.692 421.859C780.486 451.52 788.465 477.749 779.814 509.413C773.494 532.547 762.938 552.138 746.23 557.565C714.655 567.819 684.003 578.921 651.45 568.259C627.433 560.393 602.288 553.961 577.87 550.241C549.479 545.916 524.459 521.097 496.252 517.981C474.553 515.584 449.264 512.465 427.94 519.931C403.008 528.66 383.334 541.858 360.471 558.782C340.526 573.546 320.359 575.163 300.052 586.259C278.489 598.042 254.562 603.653 232.083 609.467C207.958 615.707 182.65 609.459 158.54 605.281C132.329 600.74 114.11 584.568 92.3757 563.018C66.9229 537.782 52.7443 500.183 36.745 462.013C21.9258 426.657 10.0388 384.202 4.03024 343.083C-8.94277 254.303 12.135 171.971 53.9271 108.307C66.2735 89.4989 81.8525 76.2758 96.3242 61.7974C110.788 47.3268 125.006 30.8186 141.139 21.0551C168.804 4.31208 196.55 -2.40793 226.183 1.22849C301.154 10.4287 354.906 115.171 430.984 111.703C457.742 110.483 474.855 93.0661 498.473 77.8341C520.224 63.8063 551.349 62.2574 573.103 76.1568C608.8 98.9644 625.182 134.153 645.782 183.299Z" fill="#FFC637"/>
</svg>
