<svg width="962" height="487" viewBox="0 0 962 487" fill="none" xmlns="http://www.w3.org/2000/svg">
<path d="M914.589 127.528C917.573 183.792 916.901 236.14 952.85 272.505C961.689 279.758 963.713 297.349 960.025 311.73C954.055 335.012 951.291 355.518 924.636 381.034C905.161 399.677 882.033 415.681 858.046 420.688C812.716 430.151 768.145 440.248 731.888 433.133C705.138 427.884 676.242 423.821 646.934 421.882C612.859 419.628 593.195 400.953 558.757 399.652C532.265 398.651 501.55 397.227 470.67 404.046C434.566 412.02 402.962 423.325 365.453 437.722C332.731 450.283 306.212 452.408 274.839 462.069C241.524 472.328 208.239 477.783 176.702 483.338C142.855 489.3 113.66 485.39 84.9714 483.075C53.7831 480.559 38.5254 468.469 21.4376 452.254C1.42642 433.265 1.89334 403.984 0.320485 374.325C-1.13635 346.854 4.64947 313.619 17.2733 281.201C44.5294 211.208 112.032 144.92 196.744 92.5995C221.769 77.1428 248.163 65.9885 273.763 53.8831C299.35 41.7841 325.627 28.0766 351.02 19.6478C394.564 5.19367 433.267 -1.30087 469.266 0.353976C560.344 4.54076 577.222 85.5169 675.962 79.5928C710.69 77.5093 741.109 62.9593 778.746 49.8742C813.408 37.8236 853.869 35.2966 874.757 45.4332C909.032 62.0665 912.564 89.3402 914.589 127.528Z" fill="#FFC637"/>
</svg>
