<svg width="60" height="54" viewBox="0 0 60 54" fill="none" xmlns="http://www.w3.org/2000/svg">
<path d="M22.0872 27.175L1.20533 48.0569C0.89208 48.3597 0.642281 48.7219 0.470505 49.1223C0.298729 49.5227 0.208417 49.9533 0.204838 50.389C0.201259 50.8247 0.284485 51.2567 0.449659 51.6599C0.614833 52.063 0.858648 52.4293 1.16688 52.7372C1.47511 53.0452 1.84158 53.2886 2.24491 53.4534C2.64824 53.6182 3.08035 53.701 3.51603 53.697C3.9517 53.693 4.38223 53.6023 4.78247 53.4302C5.18271 53.258 5.54466 53.0079 5.8472 52.6944L29.0478 29.4937C29.6623 28.8785 30.0074 28.0445 30.0074 27.175C30.0074 26.3054 29.6623 25.4715 29.0478 24.8562L5.8472 1.65123C5.22807 1.05381 4.39906 0.72346 3.53873 0.731339C2.67839 0.739218 1.85557 1.08469 1.24749 1.69335C0.639403 2.30201 0.294705 3.12516 0.287637 3.9855C0.280569 4.84584 0.611697 5.67453 1.2097 6.2931L22.0872 27.175ZM32.5697 42.3125C31.6995 42.3125 30.8649 42.6582 30.2495 43.2735C29.6342 43.8889 29.2885 44.7235 29.2885 45.5937C29.2885 46.464 29.6342 47.2986 30.2495 47.9139C30.8649 48.5293 31.6995 48.875 32.5697 48.875H56.6322C57.5024 48.875 58.337 48.5293 58.9524 47.9139C59.5677 47.2986 59.9135 46.464 59.9135 45.5937C59.9135 44.7235 59.5677 43.8889 58.9524 43.2735C58.337 42.6582 57.5024 42.3125 56.6322 42.3125H32.5697Z" fill="black"/>
</svg>
