<svg width="59" height="58" viewBox="0 0 59 58" fill="none" xmlns="http://www.w3.org/2000/svg">
<path d="M29.7884 0.833374C25.9582 0.833374 22.1655 1.58779 18.6268 3.05355C15.0882 4.51932 11.8729 6.66772 9.1645 9.37609C3.69469 14.8459 0.62178 22.2646 0.62178 30C0.62178 42.8917 8.99261 53.8292 20.5718 57.7084C22.0301 57.9417 22.4968 57.0375 22.4968 56.25V51.3209C14.4176 53.0709 12.6968 47.4125 12.6968 47.4125C11.3551 44.0292 9.45928 43.125 9.45928 43.125C6.80511 41.3167 9.66345 41.375 9.66345 41.375C12.5801 41.5792 14.1259 44.3792 14.1259 44.3792C16.6634 48.8125 20.9509 47.5 22.6134 46.8C22.8759 44.9042 23.6343 43.6209 24.4509 42.8917C17.9759 42.1625 11.1801 39.6542 11.1801 28.5417C11.1801 25.3042 12.2884 22.7084 14.1843 20.6375C13.8926 19.9084 12.8718 16.875 14.4759 12.9375C14.4759 12.9375 16.9259 12.15 22.4968 15.9125C24.8009 15.2709 27.3093 14.95 29.7884 14.95C32.2676 14.95 34.7759 15.2709 37.0801 15.9125C42.6509 12.15 45.1009 12.9375 45.1009 12.9375C46.7051 16.875 45.6843 19.9084 45.3926 20.6375C47.2884 22.7084 48.3968 25.3042 48.3968 28.5417C48.3968 39.6834 41.5718 42.1334 35.0676 42.8625C36.1176 43.7667 37.0801 45.5459 37.0801 48.2584V56.25C37.0801 57.0375 37.5468 57.9709 39.0343 57.7084C50.6134 53.8 58.9551 42.8917 58.9551 30C58.9551 26.1698 58.2007 22.3771 56.7349 18.8384C55.2692 15.2998 53.1208 12.0845 50.4124 9.37609C47.704 6.66772 44.4887 4.51932 40.95 3.05355C37.4114 1.58779 33.6187 0.833374 29.7884 0.833374Z" fill="black"/>
</svg>
