<svg width="56" height="56" viewBox="0 0 56 56" fill="none" xmlns="http://www.w3.org/2000/svg">
<g clip-path="url(#clip0_3_76)">
<path d="M0.876953 0.5H55.877V55.5H0.876953V0.5ZM51.3738 42.3859C50.9716 39.8697 49.332 37.7659 44.4902 35.798C42.8076 35.0108 40.9273 34.4556 40.3721 33.1838C40.1659 32.4309 40.1298 32.0202 40.2638 31.5716C40.6127 30.0848 42.359 29.6466 43.7374 30.0591C44.6329 30.3358 45.4562 31.0164 45.9752 32.1181C48.3471 30.5695 48.3471 30.5695 49.9954 29.54C49.3784 28.5827 49.0741 28.1616 48.653 27.7594C47.211 26.1386 45.2877 25.3153 42.163 25.3875L40.5423 25.5938C38.9937 25.9702 37.5173 26.7934 36.6218 27.8952C34.0162 30.8497 34.769 36.0059 37.928 38.1458C41.0527 40.4816 45.6263 40.992 46.2176 43.1955C46.7641 45.8819 44.2221 46.7413 41.7059 46.4267C39.853 46.0142 38.8235 45.0844 37.6857 43.3656L33.4954 45.7736C33.9698 46.8753 34.5249 47.3497 35.3482 48.3156C39.3323 52.3358 49.3045 52.1295 51.0937 46.0142C51.1555 45.808 51.6402 44.3934 51.2638 42.2364L51.3738 42.3859ZM30.7849 25.7794H25.6373C25.6373 30.2189 25.6098 34.6327 25.6098 39.0825C25.6098 41.903 25.7524 44.4983 25.297 45.2958C24.5355 46.8719 22.5934 46.6742 21.7065 46.3975C20.8024 45.9506 20.3366 45.3319 19.809 44.4364C19.656 44.1941 19.5495 43.9895 19.5134 43.9895L15.3334 46.5677C16.0312 48.0097 17.0521 49.2541 18.3687 50.0412C20.3298 51.2134 22.9612 51.5898 25.718 50.9728C27.509 50.4537 29.0576 49.3881 29.862 47.7416C31.0341 45.6103 30.7832 42.9978 30.7746 40.0691C30.8021 35.3597 30.7746 30.652 30.7746 25.9066L30.7849 25.7794Z" fill="black"/>
</g>
<defs>
<clipPath id="clip0_3_76">
<rect width="55" height="55" fill="white" transform="translate(0.876953 0.5)"/>
</clipPath>
</defs>
</svg>
