<svg width="71" height="70" viewBox="0 0 71 70" fill="none" xmlns="http://www.w3.org/2000/svg">
<path d="M57.1197 24.7078C56.4206 24.469 55.7165 24.2466 55.0074 24.0406C55.125 23.5621 55.2335 23.0808 55.3328 22.5968C56.9324 14.8176 55.8865 8.55036 52.3168 6.48728C48.8988 4.50759 43.2934 6.57068 37.6387 11.5035C37.0827 11.9902 36.5381 12.4915 36.0049 13.0074C35.6494 12.6647 35.2848 12.3293 34.9111 12.0011C28.9844 6.72654 23.0439 4.50486 19.4783 6.57478C16.0604 8.55857 15.0445 14.4498 16.4842 21.823C16.6282 22.5522 16.79 23.2782 16.9695 24.0009C16.1525 24.2326 15.3423 24.4879 14.54 24.7666C7.6002 27.1933 3.16231 30.9982 3.16231 34.9439C3.16231 39.0209 7.92559 43.1088 15.1621 45.5875C15.7491 45.7871 16.3415 45.9726 16.9395 46.1439C16.7453 46.9178 16.5735 47.7002 16.424 48.4914C15.0568 55.7375 16.1232 61.4892 19.5344 63.4607C23.0576 65.4965 28.968 63.4047 34.7293 58.3597C35.185 57.9605 35.6408 57.539 36.0965 57.0951C36.6725 57.652 37.265 58.1925 37.8738 58.7166C43.452 63.5263 48.9604 65.4691 52.366 63.4922C55.8865 61.4496 57.0309 55.2699 55.5447 47.7517C55.4308 47.1775 55.2995 46.5914 55.151 45.9935C55.5666 45.8705 55.9736 45.7433 56.3719 45.6121C63.8914 43.1142 68.79 39.0756 68.79 34.948C68.7873 30.9832 64.2072 27.1537 57.1197 24.7078ZM39.483 13.6226C44.327 9.39665 48.8551 7.72869 50.9195 8.92087C53.1166 10.191 53.9711 15.3125 52.5902 22.0295C52.4991 22.467 52.4007 22.9031 52.2949 23.3379C49.4042 22.6803 46.4728 22.2163 43.5203 21.9488C41.8298 19.5137 39.9767 17.1956 37.9736 15.0103C38.464 14.5345 38.9662 14.072 39.4803 13.6226H39.483ZM22.5395 38.3154C23.1328 39.4638 23.7531 40.5982 24.4002 41.7183C25.0592 42.8613 25.746 43.9874 26.4606 45.0967C24.429 44.8758 22.4102 44.5504 20.4121 44.1218C20.9918 42.2461 21.7055 40.2978 22.5395 38.3154ZM22.5395 31.7078C21.7191 29.7677 21.0246 27.8592 20.4545 26.0162C22.3275 25.5965 24.3236 25.2533 26.4045 24.9935C25.7072 26.0818 25.0364 27.186 24.392 28.3062C23.7476 29.4264 23.1287 30.5603 22.5354 31.7078H22.5395ZM24.0297 35.0123C24.8938 33.2103 25.8244 31.443 26.8215 29.7103C27.8177 27.9786 28.8782 26.2864 30.0029 24.634C31.9553 24.4863 33.9568 24.4084 35.9789 24.4084C38.001 24.4084 40.0148 24.4863 41.9658 24.6353C43.0787 26.2842 44.1328 27.9704 45.1281 29.6939C46.1234 31.4175 47.0663 33.1766 47.9568 34.9713C47.0782 36.7796 46.1376 38.5542 45.135 40.2951C44.1406 42.0269 43.0924 43.724 41.9904 45.3865C40.0422 45.5232 38.0256 45.5984 35.9748 45.5984C33.924 45.5984 31.9457 45.5342 30.033 45.4097C28.9001 43.7518 27.8309 42.0524 26.8256 40.3115C25.8203 38.5706 24.8869 36.8042 24.0256 35.0123H24.0297ZM47.5617 41.6992C48.2225 40.5526 48.8569 39.3909 49.4648 38.2142C50.2982 40.1038 51.0338 42.035 51.6688 44.0002C49.6472 44.4554 47.6032 44.8045 45.5451 45.0461C46.2397 43.9441 46.9119 42.8285 47.5617 41.6992ZM49.4375 31.7092C48.8323 30.5562 48.2029 29.4168 47.5494 28.2912C46.9114 27.181 46.2465 26.0845 45.5547 25.0017C47.6479 25.267 49.6563 25.6197 51.5389 26.0504C50.9336 27.9706 50.2322 29.8593 49.4375 31.7092ZM36.0063 17.0187C37.3715 18.5105 38.6605 20.0701 39.8686 21.6918C37.2846 21.5687 34.6988 21.5687 32.1111 21.6918C33.3867 20.0047 34.6924 18.4392 36.0063 17.0187ZM20.8893 9.00427C23.085 7.73005 27.9398 9.55115 33.0572 14.0998C33.384 14.391 33.7135 14.6959 34.0416 15.0117C32.0282 17.1966 30.162 19.5127 28.4553 21.9447C25.5093 22.2101 22.5838 22.6668 19.6971 23.3119C19.5303 22.6411 19.3799 21.9657 19.2459 21.2857C18.0086 14.9652 18.8275 10.2006 20.8893 9.00427ZM17.6887 43.4369C17.1418 43.281 16.6018 43.112 16.0686 42.9297C12.8693 41.8359 10.2266 40.4086 8.41231 38.8541C6.78809 37.4609 5.96504 36.0705 5.96504 34.9439C5.96504 32.55 9.52793 29.4957 15.4697 27.4244C16.2162 27.1646 16.9691 26.9272 17.7283 26.7121C18.6108 29.548 19.6795 32.3226 20.9275 35.0177C19.6646 37.7501 18.5827 40.5626 17.6887 43.4369ZM32.8822 56.2433C30.3352 58.4746 27.784 60.0564 25.535 60.8535C23.5143 61.5685 21.9051 61.589 20.933 61.0271C18.8631 59.8308 18.0018 55.2111 19.1762 49.015C19.3156 48.2859 19.4751 47.5567 19.6547 46.8275C22.5703 47.4556 25.5252 47.8845 28.499 48.1113C30.2224 50.556 32.1041 52.8852 34.1318 55.084C33.7244 55.4845 33.3074 55.8701 32.8822 56.2433ZM36.0842 53.0687C34.7553 51.6318 33.4291 50.0418 32.1357 48.3328C33.3926 48.382 34.6723 48.4066 35.9748 48.4066C37.3119 48.4066 38.6354 48.3779 39.9397 48.3191C38.736 49.9668 37.4492 51.552 36.0842 53.0687ZM53.1084 56.9775C52.7174 59.0885 51.9313 60.4967 50.9592 61.0599C48.8906 62.2603 44.4678 60.7004 39.699 56.5865C39.1521 56.1162 38.6053 55.6117 38.0488 55.0826C40.0371 52.8752 41.8747 50.5366 43.549 48.0826C46.5393 47.8292 49.5086 47.3701 52.4357 46.7086C52.5697 47.25 52.6882 47.7804 52.7912 48.3C53.4488 51.6222 53.5432 54.6273 53.1084 56.9775ZM55.4873 42.9447C55.1291 43.0636 54.76 43.1785 54.3854 43.2906C53.4675 40.4413 52.3571 37.6577 51.0617 34.959C52.3085 32.2962 53.3754 29.553 54.2555 26.7476C54.9268 26.9431 55.5789 27.1482 56.2065 27.3656C62.2795 29.4601 65.9846 32.5609 65.9846 34.9439C65.9846 37.4869 61.9828 40.7873 55.4873 42.9447Z" fill="black"/>
<path d="M35.9748 40.8174C37.1384 40.8211 38.2769 40.4796 39.2462 39.8359C40.2155 39.1922 40.9719 38.2754 41.4198 37.2015C41.8677 36.1276 41.9869 34.945 41.7622 33.8033C41.5376 32.6617 40.9792 31.6123 40.1577 30.7882C39.3363 29.9642 38.2888 29.4023 37.1479 29.1739C36.007 28.9455 34.824 29.0608 33.7486 29.5052C32.6733 29.9496 31.754 30.7031 31.1072 31.6703C30.4603 32.6375 30.1151 33.7749 30.115 34.9384C30.1134 35.7093 30.2638 36.473 30.5574 37.1857C30.8511 37.8984 31.2824 38.5463 31.8266 39.0923C32.3708 39.6383 33.0172 40.0717 33.729 40.3676C34.4408 40.6636 35.2039 40.8165 35.9748 40.8174Z" fill="black"/>
</svg>
