<svg width="71" height="70" viewBox="0 0 71 70" fill="none" xmlns="http://www.w3.org/2000/svg">
<path d="M10.9968 58.3333C9.78152 58.3333 8.74902 57.9084 7.8993 57.0587C7.04957 56.209 6.62374 55.1755 6.6218 53.9583C6.6218 52.743 7.04763 51.7105 7.8993 50.8608C8.75096 50.0111 9.78346 49.5852 10.9968 49.5833H12.4551V17.5C12.4551 15.8958 13.0268 14.523 14.1701 13.3816C15.3135 12.2402 16.6862 11.6686 18.2885 11.6666H59.1218C59.9482 11.6666 60.6414 11.9466 61.2014 12.5066C61.7614 13.0666 62.0404 13.7588 62.0385 14.5833C62.0385 15.4097 61.7585 16.1029 61.1985 16.6629C60.6385 17.2229 59.9462 17.5019 59.1218 17.5H18.2885V49.5833H31.4135C32.6287 49.5833 33.6622 50.0091 34.5139 50.8608C35.3655 51.7125 35.7904 52.745 35.7885 53.9583C35.7885 55.1736 35.3636 56.207 34.5139 57.0587C33.6642 57.9104 32.6307 58.3352 31.4135 58.3333H10.9968ZM44.5385 58.3333C43.7121 58.3333 43.0198 58.0533 42.4618 57.4933C41.9037 56.9333 41.6237 56.2411 41.6218 55.4166V26.25C41.6218 25.4236 41.9018 24.7313 42.4618 24.1733C43.0218 23.6152 43.714 23.3352 44.5385 23.3333H62.0385C62.8648 23.3333 63.558 23.6133 64.118 24.1733C64.678 24.7333 64.9571 25.4255 64.9551 26.25V55.4166C64.9551 56.243 64.6751 56.9362 64.1151 57.4962C63.5551 58.0562 62.8629 58.3352 62.0385 58.3333H44.5385ZM47.4551 49.5833H59.1218V29.1666H47.4551V49.5833Z" fill="black"/>
</svg>
