<svg width="87" height="69" viewBox="0 0 87 69" fill="none" xmlns="http://www.w3.org/2000/svg">
<path d="M41.9662 17.498C42.9369 16.6367 43.3197 15.2832 42.8138 14.0801C42.4994 13.3555 42.1576 12.6445 41.7748 11.9609L41.351 11.2227C40.9408 10.5391 40.4896 9.86914 40.0111 9.22656C39.2318 8.1875 37.8646 7.8457 36.6342 8.25586L32.7787 9.52734C31.3158 8.32422 29.6342 7.33984 27.8295 6.66992L26.9955 2.70508C26.7357 1.43359 25.7513 0.421875 24.4662 0.271484C23.5638 0.148438 22.6478 0.09375 21.7181 0.09375H21.6224C20.6927 0.09375 19.7767 0.148437 18.8744 0.257812C17.5892 0.408203 16.6049 1.43359 16.3451 2.69141L15.5111 6.66992C13.6927 7.35352 12.0248 8.32422 10.5619 9.52734L6.69275 8.26953C5.46228 7.85938 4.09509 8.20117 3.3158 9.24023C2.83728 9.88281 2.38611 10.5527 1.96228 11.2363L1.55212 11.9609C1.16931 12.6445 0.827515 13.3555 0.513062 14.0938C0.0072023 15.2832 0.390015 16.6367 1.36072 17.5117L4.39587 20.2188C4.24548 21.1348 4.16345 22.0918 4.16345 23.0625C4.16345 24.0332 4.24548 24.9902 4.39587 25.9199L1.36072 28.627C0.390015 29.4883 0.0072023 30.8418 0.513062 32.0449C0.827515 32.7695 1.16931 33.4805 1.55212 34.1777L1.96228 34.8887C2.37244 35.5859 2.82361 36.2422 3.3158 36.8848C4.09509 37.9238 5.46228 38.2656 6.69275 37.8555L10.5482 36.584C12.0111 37.7871 13.6927 38.7715 15.4974 39.4414L16.3314 43.4199C16.5912 44.6914 17.5756 45.7031 18.8607 45.8535C19.7767 45.9629 20.7064 46.0176 21.6498 46.0176C22.5931 46.0176 23.5228 45.9629 24.4388 45.8535C25.724 45.7031 26.7084 44.6777 26.9681 43.4199L27.8021 39.4414C29.6205 38.7578 31.2885 37.7871 32.7513 36.584L36.6068 37.8555C37.8373 38.2656 39.2045 37.9238 39.9838 36.8848C40.4623 36.2422 40.9135 35.5859 41.3236 34.8887L41.7474 34.1504C42.1302 33.4668 42.472 32.7559 42.7865 32.0312C43.2924 30.8418 42.9095 29.4883 41.9388 28.6133L38.9037 25.9062C39.0541 24.9766 39.1361 24.0195 39.1361 23.0488C39.1361 22.0781 39.0541 21.1211 38.9037 20.1914L41.9388 17.4844L41.9662 17.498ZM15.101 23.0625C15.101 21.322 15.7924 19.6528 17.0231 18.4221C18.2538 17.1914 19.923 16.5 21.6635 16.5C23.4039 16.5 25.0731 17.1914 26.3038 18.4221C27.5345 19.6528 28.226 21.322 28.226 23.0625C28.226 24.803 27.5345 26.4722 26.3038 27.7029C25.0731 28.9336 23.4039 29.625 21.6635 29.625C19.923 29.625 18.2538 28.9336 17.0231 27.7029C15.7924 26.4722 15.101 24.803 15.101 23.0625ZM68.7904 67.4277C69.6517 68.3984 71.0053 68.7812 72.2084 68.2754C72.933 67.9609 73.6439 67.6191 74.3275 67.2363L75.0658 66.8125C75.7494 66.4023 76.4193 65.9512 77.0619 65.4727C78.101 64.6934 78.4427 63.3262 78.0326 62.0957L76.7611 58.2402C77.9642 56.7773 78.9486 55.0957 79.6185 53.291L83.5971 52.457C84.8685 52.1973 85.8802 51.2129 86.0306 49.9277C86.14 49.0117 86.1947 48.082 86.1947 47.1387C86.1947 46.1953 86.14 45.2656 86.0306 44.3496C85.8802 43.0645 84.8549 42.0801 83.5971 41.8203L79.6185 40.9727C78.9349 39.1543 77.9642 37.4863 76.7611 36.0234L78.0326 32.168C78.4427 30.9375 78.101 29.5703 77.0619 28.791C76.4193 28.3125 75.7494 27.8613 75.0658 27.4375L74.3412 27.0273C73.6576 26.6445 72.9467 26.3027 72.2084 25.9883C71.0189 25.4824 69.6654 25.8652 68.7904 26.8359L66.0834 29.8711C65.1537 29.7207 64.1967 29.6387 63.226 29.6387C62.2552 29.6387 61.2982 29.7207 60.3685 29.8711L57.6615 26.8359C56.8002 25.8652 55.4467 25.4824 54.2435 25.9883C53.5189 26.3027 52.808 26.6445 52.1107 27.0273L51.3998 27.4375C50.7025 27.8477 50.0463 28.2988 49.4037 28.791C48.3646 29.5703 48.0228 30.9375 48.433 32.168L49.7045 36.0234C48.5013 37.4863 47.517 39.168 46.8471 40.9727L42.8685 41.793C41.5971 42.0527 40.5853 43.0371 40.4349 44.3223C40.3256 45.2383 40.2709 46.168 40.2709 47.1113C40.2709 48.0547 40.3256 48.9844 40.4349 49.9004C40.5853 51.1855 41.6107 52.1699 42.8685 52.4297L46.8471 53.2637C47.5306 55.082 48.5013 56.75 49.7045 58.2129L48.433 62.0684C48.0228 63.2988 48.3646 64.666 49.4037 65.4453C50.0463 65.9238 50.7025 66.375 51.3998 66.7852L52.1381 67.209C52.8217 67.5918 53.5326 67.9336 54.2572 68.248C55.4467 68.7539 56.8002 68.3711 57.6752 67.4004L60.3822 64.3652C61.3119 64.5156 62.2689 64.5977 63.2396 64.5977C64.2103 64.5977 65.1674 64.5156 66.0971 64.3652L68.8041 67.4004L68.7904 67.4277ZM63.226 40.5625C64.0878 40.5625 64.9411 40.7322 65.7373 41.062C66.5335 41.3918 67.257 41.8752 67.8663 42.4846C68.4757 43.094 68.9591 43.8174 69.2889 44.6136C69.6187 45.4098 69.7885 46.2632 69.7885 47.125C69.7885 47.9868 69.6187 48.8402 69.2889 49.6364C68.9591 50.4326 68.4757 51.156 67.8663 51.7654C67.257 52.3748 66.5335 52.8582 65.7373 53.188C64.9411 53.5178 64.0878 53.6875 63.226 53.6875C62.3642 53.6875 61.5108 53.5178 60.7146 53.188C59.9184 52.8582 59.195 52.3748 58.5856 51.7654C57.9762 51.156 57.4928 50.4326 57.163 49.6364C56.8332 48.8402 56.6635 47.9868 56.6635 47.125C56.6635 46.2632 56.8332 45.4098 57.163 44.6136C57.4928 43.8174 57.9762 43.094 58.5856 42.4846C59.195 41.8752 59.9184 41.3918 60.7146 41.062C61.5108 40.7322 62.3642 40.5625 63.226 40.5625Z" fill="black"/>
</svg>
