<svg width="80" height="60" viewBox="0 0 80 60" fill="none" xmlns="http://www.w3.org/2000/svg">
<path d="M11.4855 55.1039L11.4761 55.1073L11.4986 55.0973L11.4855 55.1039Z" fill="black"/>
<path fill-rule="evenodd" clip-rule="evenodd" d="M68.8362 34.4898L69.1662 34.4848C71.2512 34.4848 73.2237 34.9698 74.9737 35.8348L74.8961 35.7998C76.453 36.5518 77.7824 37.7035 78.7486 39.1373L78.7711 39.1723C79.6121 40.4063 80.0281 41.8807 79.9562 43.3723V43.3573C79.9208 44.0464 79.7483 44.7216 79.4486 45.3432C79.149 45.9648 78.7283 46.5203 78.2112 46.9773L78.2062 46.9823C77.648 47.5303 76.9788 47.9523 76.2437 48.2198L76.2062 48.2323C75.7895 48.3156 75.5603 48.2531 75.5186 48.0448C75.477 47.8364 75.6645 47.6073 76.0811 47.3573C77.2112 46.6723 78.0286 45.5673 78.3261 44.2648L78.3336 44.2323C78.3984 43.3641 78.2255 42.4947 77.8336 41.7173L77.8461 41.7448C77.3215 40.6393 76.51 39.6948 75.4962 39.0098L75.4712 38.9948C73.9044 37.9949 72.1163 37.3949 70.2636 37.2473L70.2236 37.2448C67.5704 36.8673 64.8647 37.1816 62.3686 38.1573L62.4737 38.1198C62.8362 38.9673 63.0636 39.9498 63.0961 40.9798V40.9923C63.078 41.9958 62.8059 42.9783 62.3054 43.8483C61.8048 44.7182 61.0921 45.4472 60.2336 45.9673L60.2061 45.9823C59.4311 46.5323 58.5462 47.0148 57.6036 47.3898L57.5161 47.4198C56.8325 47.749 56.0762 47.8987 55.3186 47.8548H55.3312C53.7495 47.5231 53.3745 46.1481 54.2061 43.7298C54.5686 42.6773 55.0761 41.7648 55.7186 40.9623L55.7037 40.9798C56.5261 39.9048 57.4286 38.9623 58.4261 38.1273L58.4536 38.1048L58.2086 37.7398C57.7231 36.9008 57.3164 36.0187 56.9936 35.1048L56.9586 34.9898C56.7086 34.1564 56.5003 33.3656 56.3336 32.6173L56.2086 31.7423L54.9586 34.1148C53.8753 36.1148 52.8336 37.8639 51.8336 39.3623L51.4586 39.9873C51.8786 41.0073 52.1886 42.1898 52.3286 43.4248L52.3336 43.4873C52.4029 44.4513 52.2225 45.4168 51.81 46.2909C51.3975 47.1649 50.7668 47.9179 49.9786 48.4773L49.9611 48.4898C49.2032 48.9525 48.4185 49.3699 47.6111 49.7398L47.4611 49.8023C46.5172 50.206 45.509 50.4388 44.4836 50.4898H44.4612C43.7642 50.5381 43.0667 50.4055 42.4361 50.1048L42.4611 50.1148C42.2135 49.9042 42.0426 49.6175 41.9752 49.2995C41.9085 48.9848 41.9469 48.657 42.0843 48.3663C43.0764 46.975 44.0537 45.7633 45.092 44.6067L47.8336 41.1198L47.3361 39.9948C46.9043 39.1921 46.5397 38.3551 46.2461 37.4923L46.2111 37.3723C45.9611 36.5389 45.7528 35.7481 45.5861 34.9998L45.4611 34.1248L44.2111 37.1248C43.2128 39.4564 42.2961 41.4556 41.4611 43.1223C40.2161 45.6223 39.1745 47.5389 38.3361 48.8723L38.0861 49.2473C37.0878 50.8289 36.1295 51.6198 35.2111 51.6198C34.2928 51.6198 33.6703 51.0364 33.3436 49.8698C33.0891 48.9353 32.9613 47.9708 32.9636 47.0023L32.9661 46.7323V46.7448L33.1891 45.1837C32.5315 46.7407 31.8738 48.1769 31.2161 49.4923C30.8102 50.2951 30.3395 51.0635 29.8086 51.7898L29.8411 51.7423C29.3261 52.2823 28.6011 52.6173 27.7986 52.6173H27.7786C27.7262 52.6223 27.6662 52.6223 27.6063 52.6223C26.9994 52.6229 26.414 52.3976 25.9642 51.9902C25.0782 51.0805 24.4403 49.9588 24.1111 48.7323L24.0986 48.6798C23.6074 47.2854 23.3926 45.8088 23.4661 44.3323V44.3573C23.6568 42.4366 24.0337 40.672 24.5834 38.9893L20.0936 41.6098V41.7348C20.9121 43.4546 21.2568 45.3616 21.0923 47.259C20.9675 49.7093 20.1868 52.081 18.8318 54.1262C17.4595 56.3129 15.4424 58.0201 13.0586 59.0123L12.9761 59.0423C11.539 59.6768 9.98459 60.0021 8.41364 59.9973C7.36865 59.9973 6.35365 59.8573 5.39364 59.5923L5.47365 59.6098C4.69791 59.3521 4.03936 58.8265 3.61614 58.1273L3.60864 58.1123C3.00296 57.2278 2.65423 56.1929 2.60114 55.1223V55.1073C2.44302 53.59 2.71052 52.0586 3.37364 50.6848L3.35114 50.7348C4.75107 48.3298 6.74463 46.3242 9.14114 44.9098L9.21615 44.8698C11.0044 43.6403 12.8821 42.5464 14.8336 41.5973L15.0986 41.4798L15.7236 41.1048C14.9736 40.5214 13.5986 39.5214 11.5986 38.1048C9.09179 36.4349 6.70478 34.5919 4.45503 32.5891C2.32267 30.7548 0.809613 28.3056 0.123643 25.5773L0.103643 25.4823C-0.183722 23.7106 0.130517 21.8939 0.996144 20.3218C2.33437 17.4261 4.27901 14.8515 6.69864 12.7723L6.72865 12.7473C9.32959 10.2922 12.239 8.18621 15.3836 6.48225L15.6011 6.37476C18.654 4.6338 21.8579 3.17203 25.1736 2.00726L25.5986 1.87726C29.0447 0.641983 32.6779 0.0102232 36.3386 0.00975778H36.3436C39.5385 -0.0910418 42.7097 0.590393 45.5812 1.99476L45.4783 1.94779C47.7222 2.97419 49.4024 4.9015 50.0761 7.25726L50.0911 7.31726C50.6774 9.6955 50.4702 12.2002 49.5011 14.4498L49.5286 14.3773C48.512 16.8739 46.9814 19.1286 45.0361 20.9948L45.0286 21.0023C43.0864 22.928 40.7752 24.4416 38.2336 25.4523L38.0961 25.4998C35.2186 26.7145 32.1428 27.3915 29.0211 27.4973L28.9736 27.4998C27.0064 27.7115 25.0168 27.533 23.1186 26.9748L23.2261 27.0023C22.0707 26.64 21.0031 26.0415 20.0911 25.2448L20.1011 25.2523C19.4835 24.7509 18.9777 24.1258 18.6161 23.4173L18.6011 23.3848C18.3511 22.7181 18.3303 22.3223 18.5386 22.1973C18.747 22.0723 18.8928 22.0514 18.9761 22.1348L19.6011 22.7598C20.2986 23.4073 21.1311 23.9173 22.0511 24.2423L22.1011 24.2573C23.3661 24.6973 24.8261 24.9523 26.3436 24.9523C26.8311 24.9523 27.3111 24.9273 27.7836 24.8748L27.7261 24.8798C31.5814 24.4389 35.2795 23.1013 38.5246 20.9746C41.1166 19.4319 43.276 17.2578 44.8011 14.6548L44.8461 14.5698C45.5986 13.4648 46.0486 12.0998 46.0486 10.6298C46.0486 9.72726 45.8786 8.86226 45.5686 8.06726L45.5861 8.11476C45.1228 7.37545 44.5076 6.74305 43.7814 6.25947C43.0552 5.77589 42.2345 5.45216 41.3736 5.30976L41.3386 5.30476C38.5912 4.65654 35.7373 4.59944 32.9661 5.13726L33.0911 5.11726C29.098 5.8194 25.2331 7.11809 21.6261 8.96976L21.8536 8.86226C11.607 14.0289 6.31614 19.3198 5.98114 24.7348V24.8573C5.98114 27.0398 6.83864 29.0223 8.23615 30.4873L8.23364 30.4848C9.80934 32.24 11.579 33.8108 13.5086 35.1673L13.6061 35.2323C15.2894 36.485 16.8756 37.863 18.3511 39.3548L18.3536 39.3598L18.6036 39.6098L26.6036 35.2373C27.4918 33.9442 28.5983 32.8157 29.8736 31.9023L29.9136 31.8748C30.9136 31.0348 32.1836 30.4873 33.5761 30.3773L33.5986 30.3748C33.6486 30.3698 33.7061 30.3698 33.766 30.3698C34.6985 30.3698 35.4986 30.9323 35.8436 31.7373L35.8486 31.7523C36.215 32.5843 36.3439 33.5015 36.2211 34.4023L36.2236 34.3773L35.9811 35.6098L36.3561 35.3598C36.5779 35.1913 36.8408 35.0855 37.1174 35.0534C37.3941 35.0213 37.6742 35.0641 37.9286 35.1773L37.9186 35.1723C38.1981 35.2438 38.4383 35.4222 38.5875 35.6691C38.7366 35.916 38.7828 36.2116 38.7161 36.4923L38.7186 36.4848L38.3436 37.8598C37.5936 40.8581 37.0945 43.0239 36.8461 44.3573C36.6855 44.9301 36.6229 45.526 36.6611 46.1198V46.1048C36.7028 46.6048 36.7653 46.8548 36.8486 46.8548C36.932 46.8548 37.0978 46.6048 37.3461 46.1048L37.7211 45.2298C37.7473 45.2298 37.7653 45.2339 37.775 45.2421L39.0961 42.4798C42.3461 35.3164 44.0953 31.3164 44.3436 30.4798L45.0936 28.1073C45.177 27.9406 45.5103 27.7748 46.0937 27.6098C46.7916 27.4259 47.5121 27.3418 48.2336 27.3598H48.2261C49.3928 27.3598 49.9761 27.6514 49.9761 28.2348L49.8511 28.8598C49.5354 29.748 49.2774 30.6557 49.0786 31.5773L49.0511 31.7348C48.9253 32.5814 48.9482 33.4435 49.1186 34.2823L49.1111 34.2348L49.2361 34.7323C49.4911 35.7748 49.8786 36.6898 50.3861 37.5248L50.3611 37.4823C51.3595 35.8173 52.3178 34.1098 53.2361 32.3598C53.9611 31.1523 54.6361 29.7523 55.1786 28.2873L55.2361 28.1123C55.4236 27.1698 55.6386 26.3748 55.9011 25.5998L55.8611 25.7398C55.9445 25.4898 56.3003 25.3023 56.9286 25.1773C57.5237 25.0573 58.2061 24.9898 58.9036 24.9898H58.9886C60.1553 24.9898 60.7778 25.2814 60.8561 25.8648L60.6061 26.3623C60.3086 27.2023 60.0486 28.2123 59.8736 29.2498L59.8586 29.3623C59.7819 30.1988 59.824 31.0419 59.9837 31.8664V32.3573C60.2671 33.4319 60.6866 34.3777 61.235 35.2355L61.6087 36.1073C63.8334 35.03 66.2744 34.4743 68.7461 34.4823H68.8387L68.8362 34.4898ZM15.2386 52.6223C17.0437 50.7613 18.0518 48.2698 18.0486 45.6773C18.0493 44.6625 17.8959 43.6535 17.5936 42.6848L17.6136 42.7548L15.6136 44.0048C13.5736 45.1673 11.8086 46.4648 10.2111 47.9398L10.2311 47.9223C9.00337 49.0483 8.12004 50.4995 7.68364 52.1073L7.66864 52.1698C7.29364 53.7114 7.48115 54.7114 8.23114 55.1698C8.68865 55.3798 9.22614 55.5023 9.78864 55.5023C10.3984 55.5023 10.9762 55.3597 11.4855 55.1039C12.9139 54.5892 14.1953 53.734 15.2186 52.6123L15.2261 52.6048L15.2386 52.6223ZM31.9811 41.1123C32.3978 40.0289 32.8561 38.7373 33.3561 37.2373C34.0228 35.2373 34.252 34.0714 34.0436 33.7398C33.8353 33.4081 33.4395 33.3664 32.8561 33.6148C32.1826 33.9381 31.5879 34.4049 31.1136 34.9823L31.1061 34.9923C30.5676 35.6765 30.0813 36.4002 29.6511 37.1573L29.6061 37.2423C29.0773 38.1152 28.6638 39.053 28.3761 40.0323L28.3536 40.1173C27.7712 41.7264 27.5171 43.4358 27.6061 45.1448V45.1148C27.6895 46.7798 27.9561 47.6756 28.4061 47.8023C28.8561 47.9289 29.377 47.3248 29.9686 45.9898C30.5411 44.9573 31.0511 43.7573 31.4311 42.4998L31.4661 42.3648C31.7145 41.7748 31.8845 41.3573 31.9761 41.1123H31.9811ZM45.8461 47.7373C46.7075 47.3562 47.4513 46.7517 48.0003 45.9864C48.5494 45.2211 48.8837 44.3228 48.9686 43.3848L48.9711 43.3648V43.2398L47.5961 44.9898L45.0986 47.7398C45.0795 47.7545 45.0639 47.7734 45.053 47.7951C45.0422 47.8167 45.0364 47.8406 45.0361 47.8648C45.0361 47.9148 45.0611 47.9598 45.0961 47.9898C45.1761 48.0714 45.4261 47.9881 45.8461 47.7398V47.7373ZM56.5936 45.3623C57.5274 45.0999 58.3501 44.54 58.9367 43.7675C59.5233 42.995 59.8417 42.0522 59.8437 41.0823V40.9898C59.8186 40.4898 59.7286 40.0198 59.5811 39.5748L59.5911 39.6123C58.6186 40.4773 57.8211 41.5123 57.2436 42.6798L57.2161 42.7373C56.4645 44.2356 56.2545 45.1089 56.5861 45.3573L56.5936 45.3623Z" fill="black"/>
<path d="M61.235 35.2355L61.2337 35.2323L61.2587 35.2723L61.235 35.2355Z" fill="black"/>
<path d="M59.9837 31.8664V31.8598L59.9936 31.9173L59.9837 31.8664Z" fill="black"/>
<path d="M38.5246 20.9746L38.4736 21.0048L38.5661 20.9473L38.5246 20.9746Z" fill="black"/>
<path d="M42.0843 48.3663L42.0836 48.3673L42.0886 48.3573L42.0843 48.3663Z" fill="black"/>
</svg>
