<svg width="71" height="70" viewBox="0 0 71 70" fill="none" xmlns="http://www.w3.org/2000/svg">
<path d="M68.4115 2.5587e-06H1.73941C1.29822 0.000775223 0.87536 0.176579 0.563664 0.488822C0.251969 0.801064 0.0769062 1.22423 0.0769069 1.66542V68.3375C0.0765226 68.5563 0.119338 68.7731 0.202897 68.9753C0.286456 69.1775 0.409115 69.3613 0.563839 69.516C0.718564 69.6707 0.902311 69.7934 1.10454 69.8769C1.30677 69.9605 1.52351 70.0033 1.74232 70.0029H68.4144C68.6331 70.0029 68.8497 69.9598 69.0517 69.8761C69.2538 69.7924 69.4374 69.6698 69.592 69.5151C69.7467 69.3605 69.8694 69.1769 69.953 68.9748C70.0367 68.7728 70.0798 68.5562 70.0798 68.3375V1.6625C70.0794 1.4438 70.036 1.22731 69.9519 1.0254C69.8679 0.823486 69.7449 0.640106 69.59 0.485729C69.4351 0.331351 69.2512 0.208999 69.049 0.125658C68.8468 0.042317 68.6302 -0.000380799 68.4115 2.5587e-06ZM41.7444 37.4092H33.4115V63.3325H26.744V37.4092H18.4111V31.6663H41.7444V37.4092ZM43.6111 61.8508V54.9237C43.6111 54.9237 47.3969 57.7763 51.9382 57.7763C56.4794 57.7763 56.3044 54.8071 56.3044 54.3988C56.3044 50.0908 43.4361 50.0908 43.4361 40.5417C43.4361 27.5567 62.1873 32.6813 62.1873 32.6813L61.954 38.8529C61.954 38.8529 58.8098 36.7558 55.2573 36.7558C51.7048 36.7558 50.4244 38.4475 50.4244 40.25C50.4244 44.9079 63.4094 44.4442 63.4094 53.8183C63.4094 68.2558 43.6111 61.8538 43.6111 61.8538" fill="black"/>
</svg>
