<svg width="20" height="20" viewBox="0 0 20 20" fill="none" xmlns="http://www.w3.org/2000/svg">
<path d="M19.5689 17.6394C19.8238 17.8943 19.967 18.2399 19.967 18.6003C19.967 18.9607 19.8238 19.3064 19.5689 19.5612C19.3141 19.8161 18.9684 19.9592 18.608 19.9592C18.2475 19.9592 17.9019 19.8161 17.647 19.5612L10.4692 12.3816L3.28919 19.5589C3.03433 19.8138 2.68867 19.957 2.32824 19.957C1.96781 19.957 1.62214 19.8138 1.36728 19.5589C1.11242 19.3041 0.969238 18.9585 0.969238 18.5981C0.969238 18.2376 1.11242 17.892 1.36728 17.6372L8.54732 10.4598L1.36954 3.28018C1.11468 3.02533 0.971499 2.67968 0.971499 2.31928C0.971499 1.95887 1.11468 1.61322 1.36954 1.35838C1.6244 1.10353 1.97007 0.960359 2.3305 0.960359C2.69093 0.960359 3.03659 1.10353 3.29145 1.35838L10.4692 8.53799L17.6493 1.35725C17.9041 1.1024 18.2498 0.959229 18.6102 0.959229C18.9707 0.959229 19.3163 1.1024 19.5712 1.35725C19.8261 1.61209 19.9692 1.95774 19.9692 2.31815C19.9692 2.67855 19.8261 3.0242 19.5712 3.27905L12.3912 10.4598L19.5689 17.6394Z" fill="black"/>
</svg>
