<svg width="71" height="70" viewBox="0 0 71 70" fill="none" xmlns="http://www.w3.org/2000/svg">
<g clip-path="url(#clip0_3_87)">
<mask id="mask0_3_87" style="mask-type:luminance" maskUnits="userSpaceOnUse" x="0" y="0" width="71" height="70">
<path d="M0.788452 0H70.7885V70H0.788452V0Z" fill="white"/>
</mask>
<g mask="url(#mask0_3_87)">
<path d="M1.45345 24.4125C1.45345 24.4125 -0.24988 23.1671 1.7947 21.5104L6.56345 17.1996C6.56345 17.1996 7.92554 15.75 9.36929 17.0129L53.3555 50.6771V66.8179C53.3555 66.8179 53.3351 69.3554 50.118 69.0754L1.45345 24.4125Z" fill="black"/>
<path d="M12.7935 34.8162L1.45346 45.2346C1.45346 45.2346 0.286788 46.1096 1.45346 47.6758L6.71804 52.5175C6.71804 52.5175 7.96929 53.8737 9.81554 52.3279L21.8351 43.1171L12.7935 34.8162ZM32.6968 34.9008L53.4926 18.8533L53.3555 2.79707C53.3555 2.79707 52.4659 -0.708763 49.5055 1.11707L21.8351 26.5708L32.6968 34.9008Z" fill="black"/>
<path d="M50.1151 69.0959C51.3226 70.3442 52.7868 69.9359 52.7868 69.9359L68.9918 61.8654C71.0655 60.4363 70.7739 58.6629 70.7739 58.6629V10.465C70.7739 8.34752 68.6301 7.61544 68.6301 7.61544L54.5835 0.770019C51.5151 -1.14623 49.5055 1.1171 49.5055 1.1171C49.5055 1.1171 52.0897 -0.764147 53.3555 2.7971V66.5263C53.3555 66.9638 53.2622 67.3925 53.0784 67.7804C52.708 68.5359 51.9059 69.2388 49.9809 68.9471L50.1151 69.0959Z" fill="black"/>
</g>
</g>
<defs>
<clipPath id="clip0_3_87">
<rect width="70" height="70" fill="white" transform="translate(0.788452)"/>
</clipPath>
</defs>
</svg>
